Coordinates
version=1
nRows=32
nColumns=12
inDegrees=yes

Units are S.I. units (second, meters, Newtons, ...)
Angles are in degrees

endheader
time	SC_y	SC_z	SC_x	AC_y	AC_z	AC_x	GH_y	GH_z	GH_yy	EL_x	PS_y
       0.0              -53.07          31.58          46.26          33.84          1.468         -8.115         -170.3          19.93          123.8          36.48          106.6
   0.01879              -53.07          31.57          46.26          33.84          1.466         -8.115         -170.3          19.93          123.8          36.49          106.6
   0.03759              -53.07          31.57          46.25          33.85          1.465         -8.114         -170.3          19.94          123.8           36.5          106.6
   0.05638              -53.07          31.56          46.25          33.85          1.463         -8.113         -170.2          19.94          123.7          36.51          106.6
   0.07518              -53.07          31.56          46.25          33.86          1.462         -8.112         -170.2          19.95          123.7          36.53          106.5
   0.09397              -53.07          31.55          46.24          33.86           1.46         -8.111         -170.1          19.96          123.6          36.54          106.5
    0.1128              -53.07          31.54          46.24          33.87          1.458          -8.11         -170.1          19.97          123.5          36.56          106.5
    0.1316              -53.07          31.53          46.24          33.88          1.456         -8.109         -170.0          19.97          123.5          36.57          106.5
    0.1504              -53.06          31.53          46.23          33.88          1.454         -8.107         -169.9          19.98          123.4          36.59          106.5
    0.1691              -53.06          31.52          46.23          33.89          1.451         -8.106         -169.9          19.99          123.3          36.61          106.5
    0.1879              -53.06          31.51          46.22           33.9          1.449         -8.105         -169.8           20.0          123.3          36.63          106.5
    0.2067              -53.06           31.5          46.22          33.91          1.446         -8.103         -169.7          20.01          123.2          36.65          106.4
    0.2255              -53.06          31.49          46.21          33.92          1.443         -8.101         -169.6          20.02          123.1          36.68          106.4
    0.2443              -53.05          31.48          46.21          33.93           1.44           -8.1         -169.5          20.03          123.0           36.7          106.4
    0.2631              -53.05          31.47           46.2          33.94          1.436         -8.098         -169.5          20.05          122.9          36.73          106.4
    0.2819              -53.05          31.45          46.19          33.95          1.433         -8.095         -169.3          20.06          122.8          36.76          106.3
    0.3007              -53.05          31.44          46.18          33.97          1.429         -8.093         -169.2          20.08          122.6          36.79          106.3
    0.3195              -53.04          31.42          46.18          33.98          1.424         -8.091         -169.1          20.09          122.5          36.83          106.3
    0.3383              -53.04           31.4          46.17           34.0          1.419         -8.088         -169.0          20.11          122.3          36.87          106.3
    0.3571              -53.04          31.39          46.16          34.01          1.414         -8.085         -168.8          20.13          122.2          36.91          106.2
    0.3759              -53.03          31.37          46.15          34.03          1.408         -8.082         -168.6          20.16          122.0          36.96          106.2
    0.3947              -53.03          31.34          46.13          34.05          1.402         -8.078         -168.5          20.18          121.8          37.01          106.1
    0.4135              -53.02          31.32          46.12          34.08          1.395         -8.074         -168.3          20.21          121.6          37.07          106.1
    0.4323              -53.02          31.29           46.1           34.1          1.387          -8.07         -168.0          20.24          121.3          37.13          106.0
    0.4511              -53.01          31.26          46.09          34.13          1.378         -8.065         -167.8          20.27          121.1           37.2          106.0
    0.4698              -53.01          31.22          46.07          34.16          1.368         -8.059         -167.5          20.31          120.8          37.28          105.9
    0.4886               -53.0          31.18          46.05           34.2          1.357         -8.053         -167.2          20.35          120.4          37.37          105.8
    0.5074              -52.99          31.14          46.02          34.24          1.345         -8.046         -166.9           20.4          120.1          37.46          105.8
    0.5262              -52.98          31.09           46.0          34.28          1.331         -8.038         -166.5          20.45          119.6          37.58          105.7
     0.545              -52.97          31.04          45.97          34.33          1.316         -8.029         -166.0          20.51          119.1           37.7          105.6
    0.5638              -52.96          30.97          45.93          34.39          1.298         -8.019         -165.5          20.58          118.6          37.85          105.4
    0.5826              -52.94           30.9          45.89          34.46          1.277         -8.007         -164.9          20.66          117.9          38.01          105.3
